# xmcd
#
# Track frame offsets:
#	150
#	16040
#	33157
#	51682
#	67595
#	80435
#	104315
#	118402
#	131405
#	147035
#	160502
#	170892
#	190182
#	209605
#	218730
#
# Disc length: 3164 seconds
#
# Revision: 1
# Processed by: cddbd v1.5PL3 Copyright (c) Steve Scherf et al.
# Submitted via: audiograbber 1.83.01
#
DISCID=cf0c5a0f
DTITLE=Paul Geremia - The Devil's Music
DYEAR=1999
DGENRE=Blues
TTITLE0=Lost Mind
TTITLE1=If A Woman's Love Was Whisky
TTITLE2=Stocking Feet Blues
TTITLE3=Same Old Wagon
TTITLE4=How'd We Do It?
TTITLE5=Drown In My Own Tears
TTITLE6=Statesboro Blues
TTITLE7=Terraplane Blues
TTITLE8=Booger-Rooger
TTITLE9=Still Think About You
TTITLE10=The Way To Get The Lowdown
TTITLE11=Chickens Come Home To Roost
TTITLE12=Fuller's Walking Blues
TTITLE13=Farewell Street Rag
TTITLE14=Little Silver Airplane
EXTD=
EXTT0=
EXTT1=
EXTT2=
EXTT3=
EXTT4=
EXTT5=
EXTT6=
EXTT7=
EXTT8=
EXTT9=
EXTT10=
EXTT11=
EXTT12=
EXTT13=
EXTT14=
PLAYORDER=
